<?xml version="1.0" encoding="utf-8"?>
<!-- Generator: Adobe Illustrator 27.5.0, SVG Export Plug-In . SVG Version: 6.00 Build 0)  -->
<svg version="1.1" id="Layer_1" xmlns="http://www.w3.org/2000/svg" xmlns:xlink="http://www.w3.org/1999/xlink" x="0px" y="0px"
	 viewBox="0 0 4000 4000" style="enable-background:new 0 0 4000 4000;" xml:space="preserve">
<g>
	<g>
		<rect style="fill:#FFFFFF;" width="4000" height="4000"/>
	</g>
	<g>
		<g>
			<circle style="fill:#FFDCC0;" cx="2050.202" cy="2062.344" r="1267.196"/>
		</g>
		<g>
			<g>
				<g>
					<path style="fill:#E5E5E5;" d="M2282.247,2798.761l-809.879-543.749c-30.667-20.59-72.057-13.791-94.526,15.526
						l-259.534,338.626c-24.462,31.917-17.047,77.836,16.217,100.432l852.763,579.264c33.597,22.822,79.503,12.334,99.856-22.814
						l216.65-374.142C2322.252,2860.026,2312.83,2819.295,2282.247,2798.761z"/>
				</g>
				<g>
					<path style="fill:#2B2625;" d="M2026.689,3317.222c-17.168,0-34.17-5.117-48.555-14.89l-852.759-579.263
						c-19.834-13.472-32.861-33.926-36.685-57.595s2.104-47.185,16.685-66.216l259.541-338.625
						c27.627-36.05,78.809-44.46,116.528-19.143l809.878,543.75c37.573,25.222,49.243,75.659,26.567,114.827l-216.65,374.143
						c-11.963,20.652-32.163,35.544-55.43,40.859C2039.497,3316.511,2033.081,3317.222,2026.689,3317.222z M1433.452,2259.453
						c-16.196,0-32.178,7.285-42.686,20.994l-259.536,338.625c-9.072,11.843-12.764,26.477-10.381,41.208
						c2.378,14.729,10.483,27.458,22.827,35.845l852.759,579.263c12.471,8.464,27.432,11.296,42.119,7.925
						c14.692-3.357,26.943-12.385,34.492-25.427l216.65-374.143c14.116-24.373,6.855-55.762-16.528-71.458l0,0l-809.878-543.75
						C1454.16,2262.405,1443.76,2259.453,1433.452,2259.453z"/>
				</g>
			</g>
			<g>
				<path style="fill:#424040;" d="M2209.915,2937.075l-21.851,35.895l-42.471,69.837l-39.756,65.34l-61.733,101.447
					c-7.637,12.601-22.699,17.862-36.107,13.704c-2.885-0.849-5.643-2.164-8.273-3.946l-813.353-546.521
					c-15.02-10.14-18.414-30.803-7.425-45.187l26.433-34.579l45.484-59.485l6.152-8.062l36.234-47.393l53.757-70.346l16.93-34.766
					c9.844-12.856,27.857-16.162,41.604-7.591l794.151,528.63C2214.327,2903.133,2218.91,2922.353,2209.915,2937.075z"/>
			</g>
			<g>
				<g>
					<path style="fill:#2B2625;" d="M2058.838,3181.389c-2.041,0-4.106-0.588-5.928-1.816l-856.392-578.362
						c-4.854-3.279-6.133-9.873-2.852-14.729c3.271-4.851,9.873-6.135,14.727-2.852l856.392,578.362
						c4.854,3.276,6.133,9.871,2.852,14.727C2065.591,3179.753,2062.241,3181.389,2058.838,3181.389z"/>
				</g>
				<g>
					<path style="fill:#2B2625;" d="M2098.457,3124.548c-2.041,0-4.106-0.588-5.928-1.819l-849.18-573.494
						c-4.854-3.276-6.133-9.871-2.852-14.727c3.276-4.856,9.868-6.133,14.727-2.854l849.18,573.494
						c4.854,3.279,6.133,9.873,2.852,14.729C2105.21,3122.913,2101.86,3124.548,2098.457,3124.548z"/>
				</g>
				<g>
					<path style="fill:#2B2625;" d="M2138.569,3054.39c-2.08,0-4.18-0.61-6.021-1.882l-836.138-577.791
						c-4.819-3.33-6.025-9.937-2.695-14.756s9.941-6.028,14.756-2.695l836.138,577.791c4.819,3.33,6.025,9.937,2.695,14.756
						C2145.249,3052.791,2141.934,3054.39,2138.569,3054.39z"/>
				</g>
				<g>
					<path style="fill:#2B2625;" d="M2188.057,2983.577c-2.036,0-4.092-0.583-5.908-1.804l-841.06-565.188
						c-4.858-3.267-6.152-9.858-2.886-14.719c3.267-4.863,9.863-6.157,14.722-2.888l841.06,565.188
						c4.858,3.267,6.152,9.858,2.886,14.719C2194.824,2981.931,2191.47,2983.577,2188.057,2983.577z"/>
				</g>
				<g>
					<path style="fill:#2B2625;" d="M1971.719,3038.953c-1.992,0-4.004-0.559-5.796-1.731c-4.902-3.206-6.279-9.78-3.071-14.683
						l44.98-68.777c3.208-4.902,9.78-6.277,14.683-3.071s6.279,9.78,3.071,14.683l-44.98,68.777
						C1978.569,3037.263,1975.181,3038.953,1971.719,3038.953z"/>
				</g>
				<g>
					<path style="fill:#2B2625;" d="M1977.061,3121.284c-1.992,0-4.004-0.559-5.796-1.731c-4.902-3.206-6.279-9.78-3.071-14.683
						l35.708-54.592c3.213-4.907,9.785-6.274,14.683-3.071c4.902,3.206,6.279,9.78,3.071,14.683l-35.708,54.592
						C1983.911,3119.595,1980.522,3121.284,1977.061,3121.284z"/>
				</g>
				<g>
					<path style="fill:#2B2625;" d="M2049.478,2984.241c-1.992,0-4.004-0.559-5.796-1.731c-4.902-3.208-6.279-9.78-3.071-14.683
						l35.708-54.59c3.213-4.905,9.785-6.272,14.683-3.071c4.902,3.208,6.279,9.78,3.071,14.683l-35.708,54.59
						C2056.328,2982.551,2052.935,2984.241,2049.478,2984.241z"/>
				</g>
				<g>
					<path style="fill:#2B2625;" d="M2120.713,2934.885c-1.992,0-4.004-0.559-5.796-1.731c-4.902-3.206-6.279-9.78-3.071-14.683
						l35.708-54.592c3.208-4.905,9.78-6.279,14.683-3.071c4.902,3.206,6.279,9.78,3.071,14.683l-35.708,54.592
						C2127.563,2933.196,2124.17,2934.885,2120.713,2934.885z"/>
				</g>
				<g>
					<path style="fill:#2B2625;" d="M1970.098,2929.651c-1.992,0-4.004-0.559-5.796-1.731c-4.902-3.206-6.279-9.78-3.071-14.683
						l35.703-54.592c3.213-4.902,9.785-6.279,14.683-3.071c4.902,3.206,6.279,9.78,3.071,14.683l-35.703,54.592
						C1976.948,2927.961,1973.56,2929.651,1970.098,2929.651z"/>
				</g>
				<g>
					<path style="fill:#2B2625;" d="M1890.713,2875.059c-1.992,0-4.004-0.559-5.796-1.731c-4.902-3.208-6.279-9.78-3.071-14.683
						l35.708-54.59c3.213-4.907,9.785-6.274,14.683-3.071c4.902,3.208,6.279,9.78,3.071,14.683l-35.708,54.59
						C1897.563,2873.369,1894.17,2875.059,1890.713,2875.059z"/>
				</g>
				<g>
					<path style="fill:#2B2625;" d="M1811.328,2820.469c-1.992,0-4.004-0.559-5.796-1.731c-4.902-3.206-6.279-9.78-3.071-14.683
						l35.708-54.592c3.213-4.907,9.78-6.274,14.683-3.071c4.902,3.206,6.279,9.78,3.071,14.683l-35.708,54.592
						C1818.179,2818.779,1814.79,2820.469,1811.328,2820.469z"/>
				</g>
				<g>
					<path style="fill:#2B2625;" d="M1731.948,2765.876c-1.992,0-4.004-0.559-5.796-1.731c-4.902-3.206-6.279-9.78-3.071-14.683
						l35.703-54.592c3.213-4.905,9.785-6.274,14.683-3.071c4.902,3.206,6.279,9.78,3.071,14.683l-35.703,54.592
						C1738.799,2764.187,1735.41,2765.876,1731.948,2765.876z"/>
				</g>
				<g>
					<path style="fill:#2B2625;" d="M1652.563,2711.284c-1.992,0-4.004-0.559-5.796-1.731c-4.902-3.208-6.279-9.78-3.071-14.683
						l35.708-54.59c3.213-4.905,9.785-6.277,14.683-3.071c4.902,3.208,6.279,9.78,3.071,14.683l-35.708,54.59
						C1659.414,2709.595,1656.021,2711.284,1652.563,2711.284z"/>
				</g>
				<g>
					<path style="fill:#2B2625;" d="M1565.293,2657.617c-1.992,0-4.004-0.559-5.796-1.731c-4.902-3.206-6.279-9.78-3.071-14.683
						l35.703-54.59c3.208-4.902,9.78-6.277,14.683-3.071s6.279,9.78,3.071,14.683l-35.703,54.59
						C1572.144,2655.928,1568.755,2657.617,1565.293,2657.617z"/>
				</g>
				<g>
					<path style="fill:#2B2625;" d="M1492.48,2603.027c-1.992,0-4.004-0.559-5.796-1.731c-4.902-3.206-6.279-9.78-3.071-14.683
						l35.703-54.592c3.208-4.9,9.78-6.279,14.683-3.071c4.902,3.206,6.279,9.78,3.071,14.683l-35.703,54.592
						C1499.331,2601.338,1495.942,2603.027,1492.48,2603.027z"/>
				</g>
				<g>
					<path style="fill:#2B2625;" d="M1424.37,2472.397c-1.992,0-4.004-0.559-5.796-1.731c-4.902-3.208-6.279-9.78-3.071-14.683
						l35.708-54.59c3.213-4.902,9.785-6.274,14.683-3.071c4.902,3.208,6.279,9.78,3.071,14.683l-35.708,54.59
						C1431.221,2470.708,1427.827,2472.397,1424.37,2472.397z"/>
				</g>
				<g>
					<path style="fill:#2B2625;" d="M1492.48,2516.887c-1.992,0-4.004-0.559-5.796-1.731c-4.902-3.206-6.279-9.78-3.071-14.683
						l35.703-54.592c3.208-4.902,9.78-6.274,14.683-3.071c4.902,3.206,6.279,9.78,3.071,14.683l-35.703,54.592
						C1499.331,2515.198,1495.942,2516.887,1492.48,2516.887z"/>
				</g>
				<g>
					<path style="fill:#2B2625;" d="M1560.586,2561.375c-1.992,0-4.004-0.559-5.796-1.731c-4.902-3.208-6.279-9.78-3.071-14.683
						l35.708-54.59c3.213-4.907,9.785-6.274,14.683-3.071c4.902,3.208,6.279,9.78,3.071,14.683l-35.708,54.59
						C1567.437,2559.685,1564.043,2561.375,1560.586,2561.375z"/>
				</g>
				<g>
					<path style="fill:#2B2625;" d="M2049.478,2885.408c-1.992,0-4.004-0.559-5.796-1.731c-4.902-3.206-6.279-9.78-3.071-14.683
						l35.708-54.592c3.213-4.902,9.785-6.277,14.683-3.071c4.902,3.206,6.279,9.78,3.071,14.683l-35.708,54.592
						C2056.328,2883.718,2052.935,2885.408,2049.478,2885.408z"/>
				</g>
				<g>
					<path style="fill:#2B2625;" d="M1412.173,2539.968c-1.992,0-4.004-0.559-5.796-1.731c-4.902-3.206-6.279-9.78-3.071-14.683
						l35.708-54.592c3.208-4.902,9.78-6.277,14.683-3.071s6.279,9.78,3.071,14.683l-35.708,54.592
						C1419.023,2538.279,1415.63,2539.968,1412.173,2539.968z"/>
				</g>
				<g>
					<path style="fill:#2B2625;" d="M1959.209,3203.613c-1.992,0-4.004-0.559-5.796-1.731c-4.902-3.208-6.279-9.78-3.071-14.683
						l35.708-54.59c3.213-4.907,9.785-6.272,14.683-3.071c4.902,3.208,6.279,9.78,3.071,14.683l-35.708,54.59
						C1966.06,3201.924,1962.666,3203.613,1959.209,3203.613z"/>
				</g>
				<g>
					<path style="fill:#2B2625;" d="M1869.434,3141.946c-1.992,0-4.004-0.559-5.796-1.731c-4.902-3.208-6.279-9.78-3.071-14.683
						l35.708-54.59c3.213-4.905,9.79-6.277,14.683-3.071c4.902,3.208,6.279,9.78,3.071,14.683l-35.708,54.59
						C1876.284,3140.256,1872.891,3141.946,1869.434,3141.946z"/>
				</g>
				<g>
					<path style="fill:#2B2625;" d="M1779.658,3080.281c-1.992,0-4.004-0.559-5.796-1.731c-4.902-3.206-6.279-9.78-3.071-14.683
						l35.708-54.592c3.208-4.9,9.78-6.279,14.683-3.071c4.902,3.206,6.279,9.78,3.071,14.683l-35.708,54.592
						C1786.509,3078.591,1783.115,3080.281,1779.658,3080.281z"/>
				</g>
				<g>
					<path style="fill:#2B2625;" d="M1689.883,3018.613c-1.992,0-4.004-0.559-5.796-1.731c-4.902-3.206-6.279-9.78-3.071-14.683
						l35.703-54.592c3.208-4.902,9.78-6.277,14.683-3.071s6.279,9.78,3.071,14.683l-35.703,54.592
						C1696.733,3016.924,1693.345,3018.613,1689.883,3018.613z"/>
				</g>
				<g>
					<path style="fill:#2B2625;" d="M1600.107,2956.946c-1.992,0-4.004-0.559-5.796-1.731c-4.902-3.206-6.279-9.78-3.071-14.683
						l35.703-54.592c3.213-4.902,9.785-6.277,14.683-3.071c4.902,3.206,6.279,9.78,3.071,14.683l-35.703,54.592
						C1606.958,2955.256,1603.569,2956.946,1600.107,2956.946z"/>
				</g>
				<g>
					<path style="fill:#2B2625;" d="M1510.332,2895.278c-1.992,0-4.004-0.559-5.796-1.731c-4.902-3.206-6.279-9.78-3.071-14.683
						l35.703-54.59c3.208-4.902,9.78-6.277,14.683-3.071s6.279,9.78,3.071,14.683l-35.703,54.59
						C1517.183,2893.589,1513.794,2895.278,1510.332,2895.278z"/>
				</g>
				<g>
					<path style="fill:#2B2625;" d="M1420.557,2833.611c-1.992,0-4.004-0.559-5.796-1.731c-4.902-3.206-6.279-9.78-3.071-14.683
						l35.703-54.59c3.213-4.902,9.785-6.274,14.683-3.071c4.902,3.206,6.279,9.78,3.071,14.683l-35.703,54.59
						C1427.407,2831.921,1424.019,2833.611,1420.557,2833.611z"/>
				</g>
				<g>
					<path style="fill:#2B2625;" d="M1330.781,2771.946c-1.992,0-4.004-0.559-5.796-1.731c-4.902-3.206-6.279-9.78-3.071-14.683
						l35.703-54.592c3.208-4.902,9.78-6.274,14.683-3.071c4.902,3.206,6.279,9.78,3.071,14.683l-35.703,54.592
						C1337.632,2770.256,1334.243,2771.946,1330.781,2771.946z"/>
				</g>
				<g>
					<path style="fill:#2B2625;" d="M1241.006,2710.278c-1.992,0-4.004-0.559-5.796-1.731c-4.902-3.206-6.279-9.78-3.071-14.683
						l35.703-54.592c3.213-4.9,9.785-6.279,14.683-3.071c4.902,3.206,6.279,9.78,3.071,14.683l-35.703,54.592
						C1247.856,2708.589,1244.468,2710.278,1241.006,2710.278z"/>
				</g>
				<g>
					<path style="fill:#2B2625;" d="M1886.074,3059.158c-1.992,0-4.004-0.559-5.796-1.731c-4.902-3.206-6.279-9.78-3.071-14.683
						l35.708-54.592c3.213-4.902,9.78-6.277,14.683-3.071s6.279,9.78,3.071,14.683l-35.708,54.592
						C1892.925,3057.468,1889.531,3059.158,1886.074,3059.158z"/>
				</g>
				<g>
					<path style="fill:#2B2625;" d="M1799.224,3003.662c-1.992,0-4.004-0.559-5.796-1.731c-4.902-3.206-6.279-9.78-3.071-14.683
						l35.708-54.592c3.213-4.905,9.785-6.27,14.683-3.071c4.902,3.206,6.279,9.78,3.071,14.683l-35.708,54.592
						C1806.074,3001.973,1802.686,3003.662,1799.224,3003.662z"/>
				</g>
				<g>
					<path style="fill:#2B2625;" d="M1705.513,2941.074c-1.992,0-4.004-0.559-5.796-1.731c-4.902-3.206-6.279-9.78-3.071-14.683
						l35.703-54.592c3.213-4.9,9.785-6.279,14.683-3.071c4.902,3.206,6.279,9.78,3.071,14.683l-35.703,54.592
						C1712.363,2939.385,1708.975,2941.074,1705.513,2941.074z"/>
				</g>
				<g>
					<path style="fill:#2B2625;" d="M1611.797,2878.486c-1.992,0-4.004-0.559-5.796-1.731c-4.902-3.206-6.279-9.78-3.071-14.683
						l35.708-54.592c3.213-4.907,9.785-6.274,14.683-3.071c4.902,3.206,6.279,9.78,3.071,14.683l-35.708,54.592
						C1618.647,2876.797,1615.259,2878.486,1611.797,2878.486z"/>
				</g>
				<g>
					<path style="fill:#2B2625;" d="M1518.086,2815.898c-1.992,0-4.004-0.559-5.796-1.731c-4.902-3.206-6.279-9.78-3.071-14.683
						l35.703-54.59c3.208-4.902,9.78-6.274,14.683-3.071c4.902,3.206,6.279,9.78,3.071,14.683l-35.703,54.59
						C1524.937,2814.209,1521.548,2815.898,1518.086,2815.898z"/>
				</g>
				<g>
					<path style="fill:#2B2625;" d="M1424.37,2753.311c-1.992,0-4.004-0.559-5.796-1.731c-4.902-3.208-6.279-9.78-3.071-14.683
						l35.708-54.59c3.213-4.905,9.785-6.272,14.683-3.071c4.902,3.208,6.279,9.78,3.071,14.683l-35.708,54.59
						C1431.221,2751.621,1427.827,2753.311,1424.37,2753.311z"/>
				</g>
				<g>
					<path style="fill:#2B2625;" d="M1330.659,2690.723c-1.992,0-4.004-0.559-5.796-1.731c-4.902-3.206-6.279-9.78-3.071-14.683
						l35.703-54.59c3.213-4.902,9.78-6.277,14.683-3.071s6.279,9.78,3.071,14.683l-35.703,54.59
						C1337.51,2689.033,1334.121,2690.723,1330.659,2690.723z"/>
				</g>
				<g>
					<path style="fill:#2B2625;" d="M1249.277,2630.322c-1.992,0-4.004-0.559-5.796-1.731c-4.902-3.206-6.279-9.78-3.071-14.683
						l35.708-54.592c3.213-4.905,9.78-6.277,14.683-3.071s6.279,9.78,3.071,14.683l-35.708,54.592
						C1256.128,2628.633,1252.739,2630.322,1249.277,2630.322z"/>
				</g>
				<g>
					<path style="fill:#2B2625;" d="M1881.436,2976.367c-1.992,0-4.004-0.559-5.796-1.731c-4.902-3.206-6.279-9.78-3.071-14.683
						l44.985-68.779c3.213-4.902,9.78-6.277,14.683-3.071s6.279,9.78,3.071,14.683l-44.985,68.779
						C1888.286,2974.678,1884.897,2976.367,1881.436,2976.367z"/>
				</g>
				<g>
					<path style="fill:#2B2625;" d="M1791.152,2913.779c-1.992,0-4.004-0.559-5.796-1.731c-4.902-3.206-6.279-9.78-3.071-14.683
						l44.985-68.777c3.213-4.905,9.78-6.272,14.683-3.071c4.902,3.206,6.279,9.78,3.071,14.683l-44.985,68.777
						C1798.003,2912.09,1794.609,2913.779,1791.152,2913.779z"/>
				</g>
				<g>
					<path style="fill:#2B2625;" d="M1700.869,2851.191c-1.992,0-4.004-0.559-5.796-1.731c-4.902-3.206-6.279-9.78-3.071-14.683
						l44.985-68.777c3.208-4.905,9.785-6.27,14.683-3.071c4.902,3.206,6.279,9.78,3.071,14.683l-44.985,68.777
						C1707.72,2849.502,1704.326,2851.191,1700.869,2851.191z"/>
				</g>
				<g>
					<path style="fill:#2B2625;" d="M1610.591,2788.604c-1.992,0-4.004-0.559-5.796-1.731c-4.902-3.206-6.279-9.78-3.071-14.683
						l44.98-68.777c3.208-4.9,9.78-6.274,14.683-3.071c4.902,3.206,6.279,9.78,3.071,14.683l-44.98,68.777
						C1617.441,2786.914,1614.053,2788.604,1610.591,2788.604z"/>
				</g>
				<g>
					<path style="fill:#2B2625;" d="M1520.308,2726.016c-1.992,0-4.004-0.559-5.796-1.731c-4.902-3.206-6.279-9.78-3.071-14.683
						l44.985-68.777c3.213-4.907,9.78-6.274,14.683-3.071c4.902,3.206,6.279,9.78,3.071,14.683l-44.985,68.777
						C1527.158,2724.326,1523.765,2726.016,1520.308,2726.016z"/>
				</g>
				<g>
					<path style="fill:#2B2625;" d="M1430.024,2663.428c-1.992,0-4.004-0.559-5.796-1.731c-4.902-3.206-6.279-9.78-3.071-14.683
						l44.985-68.777c3.213-4.905,9.785-6.272,14.683-3.071c4.902,3.206,6.279,9.78,3.071,14.683l-44.985,68.777
						C1436.875,2661.738,1433.481,2663.428,1430.024,2663.428z"/>
				</g>
				<g>
					<path style="fill:#2B2625;" d="M1339.741,2600.84c-1.992,0-4.004-0.559-5.796-1.731c-4.902-3.206-6.279-9.78-3.071-14.683
						l44.985-68.777c3.213-4.905,9.785-6.277,14.683-3.071c4.902,3.206,6.279,9.78,3.071,14.683l-44.985,68.777
						C1346.592,2599.15,1343.198,2600.84,1339.741,2600.84z"/>
				</g>
				<g>
					<path style="fill:#2B2625;" d="M2017.129,3239.585c-9.077,0-17.944-2.688-25.688-7.891l-813.335-546.55
						c-10.557-7.095-17.793-18.359-19.858-30.906c-2.056-12.478,1.143-25.396,8.779-35.474l184.897-254.478
						c14.78-19.348,41.118-24.148,61.465-11.47l794.536,528.86c21.06,13.11,27.822,41.531,14.697,63.108l-165.815,272.544
						c-6.636,10.903-17.148,18.416-29.614,21.155C2023.843,3239.219,2020.469,3239.585,2017.129,3239.585z M1388.999,2375.437
						c-4.976,0-9.961,2.275-13.267,6.597l-184.775,254.319c-0.068,0.098-0.142,0.195-0.215,0.291
						c-2.808,3.674-3.94,8.21-3.188,12.771c0.747,4.563,3.276,8.499,7.114,11.079l813.335,546.548
						c3.804,2.551,8.35,3.416,12.817,2.434s8.237-3.674,10.615-7.583l165.815-272.544c4.702-7.732,2.28-17.92-5.405-22.705
						l-794.536-528.86C1394.766,2376.204,1391.885,2375.437,1388.999,2375.437z M1178.945,2627.625h0.049H1178.945z"/>
				</g>
			</g>
		</g>
		<g>
			<g>
				<path style="fill:#E5E5E5;" d="M2054.112,3341.918l-112.775,265.814c-0.594,1.4-1.273,2.716-2.079,3.989
					c-3.988,6.492-10.31,11.244-17.778,13.238l-6.364,1.697c-8.74,2.333-18.075,0.594-25.372-4.709L748.504,2790.56
					c-10.947-8.019-15.147-22.36-10.268-34.961c0.042-0.127,0.085-0.255,0.127-0.382l3.437-8.698
					c3.861-9.631,12.389-16.547,22.615-18.372l319.486-56.769c7.637-1.358,15.529,0.297,21.936,4.625l937.372,629.341
					C2055.131,3313.363,2059.713,3328.723,2054.112,3341.918z"/>
			</g>
			<g>
				<path style="fill:#FFFFFF;" d="M1939.259,3611.72c-3.988,6.492-10.31,11.244-17.778,13.238l-6.364,1.697
					c-8.74,2.333-18.075,0.594-25.372-4.709L748.504,2790.56c-10.947-8.019-15.147-22.36-10.268-34.961
					c6.364-8.401,10.904-14.256,10.904-14.256L1939.259,3611.72z"/>
			</g>
			<g>
				<path style="fill:#2B2625;" d="M1907.319,3644.314c-9.731,0-19.282-3.062-27.358-8.94L738.735,2803.975
					c-17.231-12.556-23.735-35.146-15.82-54.941l3.482-8.689c6.011-15.042,19.136-25.72,35.093-28.552l319.521-56.758
					c11.934-2.124,24.048,0.432,34.111,7.188l0,0l937.358,629.341c18.506,12.424,25.62,36.335,16.914,56.858l-112.764,265.796
					c-5.645,13.313-16.899,23.088-30.879,26.814l-6.367,1.697C1915.396,3643.792,1911.343,3644.314,1907.319,3644.314z
					 M1089.18,2687.546c-0.781,0-1.572,0.068-2.354,0.208L767.3,2744.512c-4.57,0.811-8.325,3.867-10.049,8.179l-3.482,8.691
					c-2.266,5.662-0.4,12.136,4.536,15.732l1141.221,831.396c3.267,2.38,7.393,3.149,11.294,2.107l6.372-1.699
					c4.004-1.067,7.227-3.865,8.843-7.676l112.764-265.801c2.495-5.879,0.459-12.732-4.844-16.289l-937.358-629.341
					C1094.375,2688.323,1091.807,2687.546,1089.18,2687.546z"/>
			</g>
			<g>
				<path style="fill:#2B2625;" d="M1997.343,3342.13l-89.821,179.642c-3.267,6.534-11.583,8.57-17.481,4.243l-125.97-91.985
					l-163.604-119.521l-126.097-92.112l-269.421-196.783l-342.992-250.54c-5.049-3.691-3.267-11.541,2.843-12.686l223.98-41.877
					c3.055-0.552,6.195,0.085,8.783,1.824l94.064,63.515l268.572,181.254l125.673,84.857l163.095,110.102l244.431,165.004
					C1998.319,3330.42,2000.016,3336.826,1997.343,3342.13z"/>
			</g>
			<g style="opacity:0.25;">
				<polygon style="fill:#FFFFFF;" points="1474.37,3222.397 1204.949,3025.614 1191.627,2785.851 1460.199,2967.105 				"/>
			</g>
			<g style="opacity:0.25;">
				<polygon style="fill:#FFFFFF;" points="1764.071,3434.03 1600.467,3314.509 1585.872,3051.962 1748.967,3162.064 				"/>
			</g>
			<g>
				<path style="fill:#2B2625;" d="M1896.968,3541.018c-5.146,0-10.21-1.624-14.453-4.724l-1028.086-750.95
					c-6.387-4.668-9.385-12.668-7.637-20.386c1.753-7.72,7.91-13.645,15.693-15.098l223.95-41.863
					c6.401-1.196,12.856,0.154,18.228,3.782l895.854,604.758c10.166,6.858,13.701,20.313,8.218,31.292l-89.814,179.629
					c-3.232,6.467-9.121,11.157-16.152,12.864C1900.85,3540.789,1898.901,3541.018,1896.968,3541.018z M1897.534,3515.737h0.049
					H1897.534z M879.985,2772.488l1016.655,742.6l88.955-177.905l-894.858-604.089L879.985,2772.488z M869.443,2764.785v0.002
					V2764.785z"/>
			</g>
		</g>
		<g>
			<g>
				<g>
					<path style="fill:#666161;" d="M3300.469,2784.73c-1.443,10.607-3.097,21.13-4.964,31.524
						c-3.182,17.438-7.044,34.622-11.541,51.339c-82.354,306.63-391.275,274.597-405.149,100.768
						c-4.625-58.17,26.178-106.92,66.188-155.713c37.592-45.823,83.287-91.688,115.448-145.487
						c35.852-59.994,54.818-129.831,26.688-220.501c-26.773-86.215-69.54-144.681-114.642-184.267
						c-90.118-79.129-189.655-83.032-189.655-83.032l29.742-80.062c69.54,2.758,131.231,17.311,185.37,41.071
						C3241.748,2247.375,3333.394,2540.894,3300.469,2784.73z"/>
				</g>
				<g>
					<path style="fill:#4C4747;" d="M2972.498,2262.394c-90.118-79.129-189.655-83.032-189.655-83.032l29.742-80.062
						c69.54,2.758,131.231,17.311,185.37,41.071C2966.176,2182.247,2966.218,2229.088,2972.498,2262.394z"/>
				</g>
				<g>
					<path style="fill:#FFFFFF;" d="M3300.469,2784.73c-3.819,28.427-9.334,56.175-16.505,82.863
						c-82.354,306.63-391.275,274.597-405.149,100.768c-8.995-112.817,115.278-190.122,181.636-301.199
						c36.659-11.88,75.948-14.468,116-0.934C3239.627,2687.57,3277.643,2734.41,3300.469,2784.73z"/>
				</g>
				<g>
					<path style="fill:#EDD3CE;" d="M3295.506,2816.255c-3.182,17.438-7.044,34.622-11.541,51.339
						c-82.354,306.63-391.275,274.597-405.149,100.768c-4.625-58.17,26.178-106.92,66.188-155.713
						c-19.644,37.295-55.242,131.486,43.787,194.534C3080.054,3065.267,3230.335,2962.039,3295.506,2816.255z"/>
				</g>
				<g>
					<path style="fill:#2B2625;" d="M3036.128,3116.028c-6.406,0-12.749-0.288-19.014-0.864
						c-86.528-7.932-148.901-66.382-155.21-145.439c-6.44-80.776,47.056-142.244,103.696-207.322
						c73.101-83.994,148.691-170.847,105.308-310.735c-75.723-244.185-286.606-255.244-288.726-255.327
						c-9.365-0.366-16.66-8.257-16.294-17.622c0.366-9.368,8.281-16.653,17.622-16.294c2.446,0.095,60.63,2.759,129.272,38.618
						c63.115,32.974,147.412,101.477,190.547,240.571c48.984,157.954-36.606,256.301-112.129,343.071
						c-54.072,62.129-100.767,115.786-95.459,182.339c4.946,62.017,54.966,107.966,124.468,114.338
						c91.782,8.447,203.755-55.798,247.378-218.186c50.767-188.955,12.739-413.938-94.619-559.841
						c-85.669-116.428-210.518-181.121-361.045-187.085c-9.365-0.371-16.655-8.264-16.284-17.629s8.086-16.67,17.632-16.287
						c161.201,6.387,295.034,75.852,387.036,200.884c114.917,156.174,154.194,387.278,100.063,588.767
						C3254.507,3042.698,3137.925,3116.028,3036.128,3116.028z"/>
				</g>
			</g>
			<g>
				<g>
					<path style="fill:#666161;" d="M2876.015,2343.008c-14.34,120.37-80.232,204.717-112.265,239.339
						c-10.65,11.498-17.523,17.523-17.523,17.523s0.085,0.424,0.297,1.23c0.085,0.339,0.17,0.764,0.297,1.315
						c0.042,0.254,0.128,0.552,0.17,0.891c0.127,0.467,0.212,0.976,0.339,1.528c0,0.042,0.042,0.085,0.042,0.127
						c0.127,0.552,0.254,1.146,0.382,1.782c0.085,0.382,0.17,0.806,0.255,1.273c0.085,0.382,0.17,0.764,0.254,1.188
						c0,0.127,0.042,0.297,0.085,0.424c0.085,0.552,0.212,1.103,0.339,1.655c0.255,1.442,0.552,3.055,0.891,4.794
						c0.085,0.509,0.212,1.018,0.297,1.57c0.127,0.552,0.212,1.061,0.297,1.655c0.339,1.697,0.678,3.564,0.976,5.473
						c0.339,1.909,0.678,3.946,1.018,6.067c0.424,2.588,0.848,5.303,1.315,8.189c0.127,0.976,0.296,1.994,0.424,3.012
						c0.127,0.976,0.297,1.994,0.425,3.012c0.297,1.952,0.551,3.903,0.848,5.898c0,0.127,0,0.255,0.042,0.424
						c0.424,3.182,0.806,6.534,1.231,9.971v0.042c12.092,103.525,10.819,301.793-174.975,306.885
						c-207.348,5.643-205.057-210.742-197.802-287.198c1.528-16.335,3.31-26.306,3.31-26.306
						c-5.346-0.042-10.607-0.127-15.868-0.255c-27.96-0.636-54.945-2.079-81.038-4.285c-95.252-8.061-178.454-26.39-251.091-52.272
						c-44.507-15.826-85.026-34.494-121.982-55.369c-51.72-29.191-96.355-62.751-134.922-98.943
						c-126.14-118.333-187.067-264.753-216.555-379.777c-28.215-110.272-27.494-191.692-27.494-191.692
						c704.779-169.332,1272.259,185.37,1272.259,185.37C2872.197,2166.082,2885.604,2262.564,2876.015,2343.008z"/>
				</g>
				<g>
					<path style="fill:#FFFFFF;" d="M2756.452,2661.391c12.092,103.525,10.819,301.793-174.975,306.885
						c-207.348,5.643-205.057-210.742-197.802-287.198c1.528-16.335,3.31-26.306,3.31-26.306
						c-5.346-0.042-10.607-0.127-15.868-0.255c2.589-4.455,4.2-7.17,4.413-7.764c0.848-2.546-43.616-2.97-122.448-15.232
						c-50.448-7.849-114.981-20.535-190.674-41.707c-44.762-12.516-93.427-28.003-145.402-47.223
						c-0.467-0.169-0.934-0.339-1.4-0.509c-57.49-21.299-100.895-56.302-133.522-98.434
						c-59.57-76.753-83.542-177.223-92.282-261.571c-9.674-93.3-0.764-166.871-0.764-166.871s581.779,101.234,552.63,173.32
						c-24.863,61.351-63.346,142.644-74.25,165.428c-1.909,3.989-2.97,6.195-2.97,6.195l305.485,272.9
						c180.194,61.776,286.604-54.945,286.604-54.945s2.63,1.485,7.213,4.243c-10.65,11.498-17.523,17.523-17.523,17.523
						s0.085,0.424,0.297,1.23c0.085,0.339,0.17,0.764,0.297,1.315c0.042,0.254,0.128,0.552,0.17,0.891
						c0.127,0.467,0.212,0.976,0.339,1.528c0,0.042,0.042,0.085,0.042,0.127c0.127,0.552,0.254,1.146,0.382,1.782
						c0.085,0.382,0.17,0.806,0.255,1.273c0.085,0.382,0.17,0.764,0.254,1.188c0,0.127,0.042,0.297,0.085,0.424
						c0.085,0.552,0.212,1.103,0.339,1.655c0.255,1.442,0.552,3.055,0.891,4.794c0.085,0.509,0.212,1.018,0.297,1.57
						c0.127,0.552,0.212,1.061,0.297,1.655c0.297,1.74,0.636,3.522,0.976,5.473c0.339,1.909,0.678,3.946,1.018,6.067
						c0.467,2.588,0.891,5.346,1.315,8.189c0.127,0.976,0.296,1.994,0.424,3.012c0.127,0.976,0.297,1.994,0.425,3.012
						c0.297,1.952,0.551,3.903,0.848,5.898c0,0.127,0,0.255,0.042,0.424c0.424,3.182,0.806,6.534,1.231,9.971V2661.391z"/>
				</g>
				<g>
					<path style="fill:#EDD3CE;" d="M2392.697,2823.532c0,0,54.06,101.256,187.925,96.108
						c133.864-5.149,175.053-104.689,175.053-104.689s-15.446,155.317-181.06,152.742
						C2409.001,2965.119,2392.697,2823.532,2392.697,2823.532z"/>
				</g>
				<g>
					<path style="fill:#4C4747;" d="M2876.015,2343.008c-14.34,120.37-80.232,204.717-112.265,239.339
						c-4.583-2.758-7.213-4.243-7.213-4.243s-106.411,116.721-286.604,54.945l-305.485-272.9c0,0,1.061-2.206,2.97-6.195
						c13.407-4.413,21.044-7.51,21.044-7.51s125.292,157.876,375.874,171.623
						C2746.991,2528.081,2839.358,2408.518,2876.015,2343.008z"/>
				</g>
				<g>
					<path style="fill:#4C4747;" d="M1782.083,2443.648c-126.14-118.333-187.067-264.753-216.555-379.777l84.051-55.539
						c0,0,0,84.136,40.222,173.745C1698.542,2266.425,1722.513,2366.896,1782.083,2443.648z"/>
				</g>
				<g>
					<path style="fill:#EDD3CE;" d="M2755.222,2651.378c0.424,3.182,0.806,6.534,1.231,9.971v0.042
						c-50.49,36.786-119.224,57.533-212.736,47.138c-64.109-7.128-116.763-16.632-160.041-27.451
						c1.528-16.335,3.31-26.306,3.31-26.306c-5.346-0.042-10.607-0.127-15.868-0.255c-27.96-0.636-54.945-2.079-81.038-4.285
						c-14.129-6.194-26.39-12.474-36.997-18.711c-72.213-42.64-68.055-84.305-68.055-84.305l-122.618,42.598l-23.421,8.146
						c-44.507-15.826-85.026-34.494-121.982-55.369c-51.72-29.191-96.355-62.751-134.922-98.943
						c-59.57-76.753-83.542-177.223-92.282-261.571c23.208,51.72,59.867,105.265,117.654,145.487
						c128.728,89.482,300.733,45.653,359.963,26.39c-1.909,3.989-2.97,6.195-2.97,6.195l305.485,272.9
						c180.194,61.776,286.604-54.945,286.604-54.945s2.63,1.485,7.213,4.243c-10.65,11.498-17.523,17.523-17.523,17.523
						s0.085,0.424,0.297,1.23c0.085,0.339,0.17,0.764,0.297,1.315c0.042,0.254,0.128,0.552,0.17,0.891
						c0.127,0.467,0.212,0.976,0.339,1.528c0,0.042,0.042,0.085,0.042,0.127c0.127,0.552,0.254,1.146,0.382,1.782
						c0.085,0.382,0.17,0.806,0.255,1.273c0.085,0.382,0.17,0.764,0.254,1.188c0,0.127,0.042,0.297,0.085,0.424
						c0.085,0.552,0.212,1.103,0.339,1.655c0.255,1.442,0.552,3.055,0.891,4.794c0.085,0.509,0.212,1.018,0.297,1.57
						c0.127,0.552,0.212,1.061,0.297,1.655c0.297,1.74,0.636,3.522,0.976,5.473c0.339,1.909,0.678,3.946,1.018,6.067
						c0.424,2.588,0.848,5.303,1.315,8.189c0.127,0.976,0.296,1.994,0.424,3.012c0.127,0.976,0.297,1.994,0.425,3.012
						c0.297,1.952,0.551,3.903,0.848,5.898C2755.179,2651.081,2755.179,2651.208,2755.222,2651.378z"/>
				</g>
				<g>
					<path style="fill:#2B2625;" d="M2796.167,2571.472c-58.398,66.726-150.311,99.987-237.876,93.333
						c-15.174-0.848-15.798-22.857-0.678-24.521c44.936-2.114,90.027-10.404,130.761-30.052
						c30.083-15.038,58.901-34.44,81.158-59.796C2783.864,2533.075,2809.775,2553.481,2796.167,2571.472L2796.167,2571.472z"/>
				</g>
				<g>
					<path style="fill:#2B2625;" d="M2511.982,2844.731c0.867,34.888,2.574,74.817,20.37,105.357
						c12.306,19.629-16.367,37.698-28.744,18.049c-16.205-29.419-18.455-61.551-19.629-93.837
						c-0.185-10.276-0.107-20.178,0.523-30.777c0.449-7.583,6.963-13.364,14.546-12.915
						C2506.497,2831.04,2512.206,2837.365,2511.982,2844.731L2511.982,2844.731z"/>
				</g>
				<g>
					<path style="fill:#2B2625;" d="M2653.394,2841.807c1.229,42.51,1.489,85.777-19.105,124.615
						c-11.731,19.056-40.135,2.588-29.357-17.073c9.271-14.009,13.78-32.849,16.635-50.097c2.999-18.364,4.341-38.043,4.341-56.565
						C2626.218,2825.022,2651.935,2824.206,2653.394,2841.807L2653.394,2841.807z"/>
				</g>
				<g>
					<path style="fill:#2B2625;" d="M2329.863,2638.674c17.822,0.323,35.863,1.238,53.701,2.307
						c17.949,1.07,35.85,2.24,53.828,4.626c9.718,1.291,10.028,15.41,0.478,17.192c-27.21,5.016-54.528,5.763-81.977,5.615
						c-9.121-0.059-18.164-0.32-27.358-0.979c-7.935-0.566-13.906-7.458-13.34-15.391
						C2315.742,2644.354,2322.253,2638.505,2329.863,2638.674L2329.863,2638.674z"/>
				</g>
				<g>
					<path style="fill:#2B2625;" d="M1554.995,1872.332c2.494,105.2,26.513,210.482,66.2,307.84
						c128.633,320.696,434.474,461.078,765.887,461.448c8.028,0.075,14.226,7.571,12.839,15.466
						c-11.069,83.356-8.143,190.261,53.729,253.472c37.74,37.406,92.833,46.592,144.841,41.366
						c123.72-11.504,150.485-134.84,145.355-239.976c-0.731-18.205-2.343-36.435-4.716-54.564
						c-2.383-17.998-5.459-36.477-9.395-53.547c-1.458-6.296,0.731-12.582,5.195-16.641c16.896-15.618,32.571-34.151,46.255-52.874
						c106.223-144.438,102.78-315.997,14.378-468.381c-4.657-8.145-1.815-18.529,6.339-23.172
						c8.145-4.636,18.506-1.792,23.145,6.355c25.01,43.938,44.98,91.206,57.402,140.803
						c12.447,49.704,16.461,101.716,10.542,152.666c-10.64,95.709-55.468,186.292-121.309,256.067
						c-4.546,4.763-8.858,9.077-14.297,13.987c0.001,0.016,5.351-16.826,5.352-16.743c33.869,158.954,22.697,390.339-190.85,387.18
						c-50.325,0.235-102.43-15.758-138.441-52.163c-69.001-71.265-72.65-185.946-59.416-278.459
						c-0.029-0.01,12.923,15.526,12.766,15.459c-343.131,1.658-659.848-144.242-795.159-475.407
						c-42.063-101.664-67.488-210.293-70.585-320.482C1521.871,1849.559,1554.563,1849.193,1554.995,1872.332L1554.995,1872.332z"/>
				</g>
			</g>
			<g>
				<g>
					<path style="fill:#666161;" d="M1211.947,2011.766c0,0,17.162-382.714,344.958-353.539s18.878,441.065,18.878,441.065
						L1211.947,2011.766z"/>
				</g>
				<g>
					<path style="fill:#2B2625;" d="M1575.781,2116.265c-1.318,0-2.651-0.154-3.97-0.471l-363.833-87.524
						c-7.905-1.902-13.35-9.141-12.983-17.261c0.356-7.944,10.117-195.745,131.436-301.853
						c60.923-53.289,138.955-76.121,231.978-67.832c79.233,7.051,130.898,36.406,153.56,87.251
						c60.093,134.832-115.122,370.916-122.607,380.901C1586.108,2113.809,1581.045,2116.265,1575.781,2116.265z M1230.083,1998.674
						l338.594,81.453c30.742-43.533,158.408-234.304,112.275-337.754c-17.275-38.74-59.517-61.365-125.552-67.241
						c-83.369-7.412-152.832,12.588-206.494,59.458C1256.465,1815.327,1234.751,1954.495,1230.083,1998.674z"/>
				</g>
			</g>
			<g>
				<g>
					<path style="fill:#666161;" d="M2636.38,2421.373c-103.78,172.005-233.526,285.204-358.011,348.804
						c-180.236,92.027-349.526,80.105-413.126-7.849c-94.106-130.128,41.198-176.206,41.198-176.206
						c40.222-12.983,75.438-29.954,106.114-48.92c131.783-81.59,179.939-200.517,179.939-200.517s81.208,34.324,195.637,65.212
						C2502.518,2432.829,2636.38,2421.373,2636.38,2421.373z"/>
				</g>
				<g>
					<path style="fill:#FFFFFF;" d="M2272.648,2770.177c-180.236,92.027-349.526,80.105-413.126-7.849
						c-94.106-130.128,41.198-176.206,41.198-176.206c40.222-12.983,75.438-29.954,106.114-48.92
						C2015.489,2595.075,2058.936,2723.549,2272.648,2770.177z"/>
				</g>
				<g>
					<path style="fill:#EDD3CE;" d="M1881.839,2605.574c0,0-38.329,71.509,26.887,130.432
						c65.216,58.923,238.553,76.085,307.773,54.347c0,0-98.968,60.067-220.247,38.329
						C1874.975,2806.942,1780.583,2685.092,1881.839,2605.574z"/>
				</g>
				<g>
					<path style="fill:#2B2625;" d="M2206.245,2342.28c-25.436,62.658-67.972,118.116-118.188,163.011
						c-8.514,8.011-20.178,16.828-29.405,24.106c-9.167,7.396-26.723,18.541-36.533,25.22c-7.949,4.484-19.622,11.165-27.603,15.654
						c-2.667,1.646-8.377,4.575-11.265,5.815c-13.27,6.381-32.641,15.561-46.44,20.188c-1.653,0.759-26.366,9.571-27.798,10.423
						c-22.252,9.62-44.962,27.204-53.14,49.905c-12.993,38.157,13.718,82.65,40.34,109.729c4.092,4.393,11.382,9.8,16.291,13.354
						c2.27,1.96,6.488,4.028,9.082,5.655c3.154,1.714,5.996,3.894,9.414,5.234c54.043,26.181,118.857,26.56,178.018,16.431
						c92.843-16.519,180.472-58.991,256.729-113.877c104.363-74.298,186.403-173.84,258.843-278.941
						c4.336-6.296,12.959-7.886,19.258-3.547c5.845,4.026,7.632,11.746,4.39,17.869c-46.184,87.59-109.352,166.361-182.139,233.664
						c-98.454,89.635-217.728,161.059-349.975,185.445c-83.665,14.875-182.76,9.943-248.34-51.686
						c-65.66-66.843-85.241-162.933,6.876-216.795c20.765-12.748,47.64-18.621,69.589-28.938
						c4.139-2.094,22.848-10.436,26.499-12.247c3.13-1.722,11.989-6.784,15.259-8.591c54.542-30.291,102.392-72.067,141.66-120.534
						c19.471-24.465,37.326-50.546,51.436-78.486C2187.731,2314.114,2212.427,2324.732,2206.245,2342.28L2206.245,2342.28z"/>
				</g>
				<g>
					<path style="fill:#2B2625;" d="M1922.744,2662.344c-20.397,3.081-42.611,13.415-52.832,31.917
						c-3.729,5.862-5.219,12.911-6.807,19.697c-5.736,21.734-37.582,14.389-33.159-7.701c8.028-30.245,34.003-53.927,63.995-60.988
						c9.547-2.441,18.095-3.735,28.227-3.79c5.752-0.017,10.43,4.631,10.449,10.383
						C1932.652,2657.511,1928.182,2661.95,1922.744,2662.344L1922.744,2662.344z"/>
				</g>
				<g>
					<path style="fill:#2B2625;" d="M1984.531,2740.718c-20.402,3.081-42.615,13.413-52.837,31.917
						c-3.725,5.864-5.228,12.909-6.802,19.697c-5.742,21.732-37.578,14.393-33.164-7.7c8.026-30.248,34.004-53.924,63.995-60.99
						c9.545-2.437,18.1-3.734,28.227-3.787c5.752-0.02,10.43,4.631,10.449,10.383
						C1994.434,2735.882,1989.97,2740.324,1984.531,2740.718L1984.531,2740.718z"/>
				</g>
			</g>
			<g>
				<g>
					<path style="fill:#FFFFFF;" d="M1632.465,2146.337c-18.483,118.459-122.66,220.956-250.361,247.84
						c-135.305,28.485-250.361-110.962-250.361-247.84c0-136.879,112.09-247.84,250.361-247.84S1653.566,2011.095,1632.465,2146.337
						z"/>
				</g>
				<g>
					<path style="fill:#EDD3CE;" d="M1382.104,1898.497c-10.441,0-20.708,0.707-30.813,1.936
						c121.417,20.189,226.275,123.075,207.378,244.189c-18.483,118.459-122.66,220.956-250.361,247.84
						c-0.792,0.167-1.58,0.299-2.371,0.455c24.152,5.96,49.771,6.819,76.168,1.262c127.701-26.884,231.878-129.381,250.361-247.84
						C1653.566,2011.095,1520.374,1898.497,1382.104,1898.497z"/>
				</g>
				<g>
					<path style="fill:#2B2625;" d="M1346.919,2414.475c-44.971,0-89.321-16.335-127.935-47.666
						c-64.063-51.978-103.857-136.458-103.857-220.471c0-145.823,119.766-264.458,266.978-264.458
						c81.309,0,163.96,37.551,215.708,97.996c42.241,49.341,60.376,109.368,51.069,169.023l0,0
						c-19.58,125.466-127.876,233.015-263.354,261.538C1372.69,2413.14,1359.775,2414.475,1346.919,2414.475z M1382.104,1915.112
						c-128.887,0-233.745,103.728-233.745,231.226c0,73.123,35.942,149.534,91.563,194.666
						c29.521,23.953,77.568,49.805,138.76,36.914c122.261-25.74,219.868-122.021,237.368-234.141
						c7.783-49.91-7.656-100.442-43.481-142.288C1526.958,1948.21,1453.975,1915.112,1382.104,1915.112z M1632.466,2146.338h0.049
						H1632.466z"/>
				</g>
			</g>
		</g>
		<g>
			<g>
				<g>
					
						<ellipse transform="matrix(0.7497 -0.6617 0.6617 0.7497 -1084.0948 1525.9899)" style="fill:#FFFFFF;" cx="1475.437" cy="2196.257" rx="50.834" ry="84.952"/>
					<path style="fill:#2B2625;" d="M1507.271,2285.222c-7.69,0-15.835-1.311-24.185-3.97c-20.698-6.597-41.47-20.847-58.486-40.127
						c-37.817-42.849-45.112-96.123-16.611-121.284c28.496-25.154,80.459-11.311,118.286,31.545
						c37.817,42.852,45.107,96.125,16.606,121.284l0,0C1533.486,2280.967,1521.118,2285.222,1507.271,2285.222z M1443.481,2141.182
						c-5.415,0-9.922,1.362-13.032,4.109c-11.982,10.576-6.147,44.204,19.6,73.374c12.822,14.534,28.623,25.557,43.34,30.247
						c11.724,3.728,21.572,3.123,27.031-1.685c0-0.002,0-0.002,0-0.002c11.982-10.576,6.152-44.204-19.595-73.376
						C1481.763,2152.253,1458.921,2141.182,1443.481,2141.182z"/>
				</g>
				<g>
					<circle style="fill:#E8DCDA;" cx="1677.468" cy="2413.883" r="242.557"/>
					<path style="fill:#2B2625;" d="M1677.466,2673.411c-143.101,0-259.526-116.423-259.526-259.526
						c0-143.105,116.426-259.529,259.526-259.529c143.105,0,259.531,116.423,259.531,259.529
						C1936.997,2556.987,1820.571,2673.411,1677.466,2673.411z M1677.466,2188.296c-124.385,0-225.581,101.199-225.581,225.588
						c0,124.387,101.196,225.586,225.581,225.586c124.39,0,225.586-101.199,225.586-225.586
						C1903.052,2289.495,1801.855,2188.296,1677.466,2188.296z"/>
				</g>
			</g>
			<g>
				<g>
					<circle style="fill:#FFFFFF;" cx="1639.282" cy="2384.183" r="242.557"/>
				</g>
				<g>
					
						<ellipse transform="matrix(0.7071 -0.7071 0.7071 0.7071 -1205.7375 1857.4587)" style="fill:#EAA77A;" cx="1639.282" cy="2384.183" rx="204.801" ry="204.801"/>
				</g>
				<g>
					<circle style="fill:#F7C9A9;" cx="1639.282" cy="2384.183" r="156.175"/>
				</g>
				<g>
					<g>
						<path style="fill:#FFEADC;" d="M1603.022,2470.151c22.475-17.397,48.079-29.071,74.458-38.76
							c7.583-2.608,16.082-5.353,22.451-9.934c12.412-8.284,15.4-22.209,7.544-32.93c-9.805-13.041-26.667-14.632-42.646-13.574
							c-3.388,0.481-4.832-4.521-1.797-5.959c30.465-17.84,75.659,1.643,68.413,41.295c-3.637,17.279-18.76,29.511-34.522,34.955
							c-13.228,4.178-26.494,7.41-39.6,11.787c-17.163,5.403-34.39,11.404-50.957,18.369
							C1603.1,2477.042,1600.083,2472.44,1603.022,2470.151L1603.022,2470.151z"/>
					</g>
					<g>
						<path style="fill:#FFEADC;" d="M1603.022,2470.151c22.475-17.397,48.079-29.071,74.458-38.76
							c7.583-2.608,16.082-5.353,22.451-9.934c12.412-8.284,15.4-22.209,7.544-32.93c-9.805-13.041-26.667-14.632-42.646-13.574
							c-3.388,0.481-4.832-4.521-1.797-5.959c30.465-17.84,75.659,1.643,68.413,41.295c-3.637,17.279-18.76,29.511-34.522,34.955
							c-13.228,4.178-26.494,7.41-39.6,11.787c-17.163,5.403-34.39,11.404-50.957,18.369
							C1603.1,2477.042,1600.083,2472.44,1603.022,2470.151L1603.022,2470.151z"/>
					</g>
					<g>
						<path style="fill:#FFEADC;" d="M1588.701,2488.557c29.043-7.915,58.389-14.124,88.315-18.44
							c13.775-1.62,28.581-3.713,41.304-9.158c12.564-5.115,23.682-12.925,31.353-23.274c14.991-19.898,18.263-50.853,4.473-72.224
							c-14.57-22.661-44.174-29.078-69.873-21.982c-6.46,1.625-9.735-7.58-3.794-10.44c50.857-25.147,108.66,12.646,102.582,70.113
							c-4.457,56.547-52.331,82.079-104.248,83.192c-29.36,2.425-58.896,6.273-88.193,10.819
							C1585.25,2498.084,1583.34,2490.017,1588.701,2488.557L1588.701,2488.557z"/>
					</g>
					<g>
						<path style="fill:#FFEADC;" d="M1805.083,2443.396c-0.953,33.13-27.338,60.46-57.427,71.023
							c-19.714,7.13-40.185,5.198-60.542,4.828c-23.281-0.004-46.935,1.096-69.404,7.308c-3.891,1.149-8.76,2.719-12.09,4.4
							c-2.95,1.834-6.944,0.911-8.496-2.28c-6.904-13.652,50.636-24.342,60.063-25.335c19.344-2.718,38.881-2.687,58.33-2.978
							c39.692-1.492,60.24-26.691,78.114-59.367C1796.213,2435.129,1805.19,2436.927,1805.083,2443.396L1805.083,2443.396z"/>
					</g>
					<g>
						<path style="fill:#FFEADC;" d="M1574.727,2457.139c-1.241-31.841-6.38-63.313-11.314-94.768
							c-4.435-30.502,18.995-62.105,51.671-52.153c21.82,6.665,33.036,29.613,31.752,50.315c-0.073,1.748-1.548,3.105-3.296,3.034
							c-1.284-0.051-2.363-0.867-2.813-1.99c-3.319-8.394-7.175-16.181-12.485-22.012c-13.876-17.058-40.905-15.222-44.595,9.945
							c-1.428,7.708-0.294,16.578,0.586,24.543c0.967,9.282,1.362,18.625,1.616,27.959c0.122,18.704-0.635,37.363-4.951,55.92
							C1580.09,2461.502,1574.608,2460.855,1574.727,2457.139L1574.727,2457.139z"/>
					</g>
					<g>
						<path style="fill:#FFEADC;" d="M1574.727,2457.139c-1.241-31.841-6.38-63.313-11.314-94.768
							c-4.435-30.502,18.995-62.105,51.671-52.153c21.82,6.665,33.036,29.613,31.752,50.315c-0.073,1.748-1.548,3.105-3.296,3.034
							c-1.284-0.051-2.363-0.867-2.813-1.99c-3.319-8.394-7.175-16.181-12.485-22.012c-13.876-17.058-40.905-15.222-44.595,9.945
							c-1.428,7.708-0.294,16.578,0.586,24.543c0.967,9.282,1.362,18.625,1.616,27.959c0.122,18.704-0.635,37.363-4.951,55.92
							C1580.09,2461.502,1574.608,2460.855,1574.727,2457.139L1574.727,2457.139z"/>
					</g>
					<g>
						<path style="fill:#FFEADC;" d="M1561.748,2480.662c-8.369-28.44-17.48-56.802-27.798-84.395
							c-5.719-14.484-11.007-29.543-12.295-45.24c-1.397-16.128,0.82-33.332,8.418-48.628c15.664-30.23,49.564-51.317,84.297-45.667
							c34.492,5.282,58.772,39.46,57.553,72.694c-0.058,6.657-9.837,7.461-11.059,1.017c-2.677-13.815-8.285-26.583-17.07-36.206
							c-17.457-20.004-46.637-23.416-68.945-9.845c-40.925,22.457-40.342,67.53-25.448,106.586
							c8.842,28.909,15.736,58.103,20.951,87.751C1571.281,2484.107,1563.268,2486.045,1561.748,2480.662L1561.748,2480.662z"/>
					</g>
					<g>
						<path style="fill:#FFEADC;" d="M1527.837,2280.015c-24.05,32.74-36.863,63.278-17.723,102.046
							c15.406,33.779,31.286,70.21,28.013,108.198c-1.396,7.485-12.416,5.774-11.544-1.821
							c-0.345-18.111-6.542-35.913-12.822-52.856c-9.865-28.089-29.443-52.38-32.75-82.68c-3.273-31.728,10.21-67.236,39.776-82.225
							C1526.594,2267.85,1532.046,2275.221,1527.837,2280.015L1527.837,2280.015z"/>
					</g>
					<g>
						<path style="fill:#FFEADC;" d="M1794.922,2375.007c-16.401-49.066-47.505-64.803-97.549-62.596
							c-5.7,0.358-7.306-7.707-1.855-9.445c24.092-8.333,52.492-9.029,74.853,4.463c23.392,13.525,37.034,39.553,37.403,66.159
							C1807.652,2381.265,1796.744,2382.381,1794.922,2375.007L1794.922,2375.007z"/>
					</g>
					<g>
						<path style="fill:#FFEADC;" d="M1574.434,2230.022c37.455-18.46,83.132-4.682,102.299,32.901
							c6.181,10.938,9.244,23.449,11.201,35.7c0.444,2.622-1.323,5.107-3.945,5.552c-2.334,0.4-4.411-0.948-5.327-2.971
							c-5.331-10.02-9.794-20.156-16.636-29.077c-18.943-27.99-52.109-34.955-83.833-29.884
							C1571.106,2243.263,1568.035,2233.121,1574.434,2230.022L1574.434,2230.022z"/>
					</g>
				</g>
				<g>
					<path style="fill:#2B2625;" d="M1893.311,2384.182c0.418,100.546-63.531,196.82-156.876,234.54
						c-167.283,69.951-354.132-53.032-355.819-234.541c-1.534-184.848,187.397-309.622,357.056-237.508
						C1831.27,2185.343,1895.374,2283.032,1893.311,2384.182L1893.311,2384.182z M1870.371,2384.182
						c-0.112-90.963-59.113-177.724-143.839-210.649c-148.132-60.17-312.68,51.149-313.695,210.65
						c-2.257,162.689,164.248,275.993,314.927,213.62C1812.75,2563.922,1871.887,2475.752,1870.371,2384.182L1870.371,2384.182z"/>
				</g>
				<g>
					<path style="fill:#B26E3B;" d="M1849.805,2384.182c1.031,83.471-52.31,163.72-129.742,195.016
						c-138.293,57.949-293.146-44.795-292.376-195.017c0.66-149.058,154.163-251.196,291.665-193.292
						C1796.018,2222.367,1849.954,2300.992,1849.805,2384.182L1849.805,2384.182z M1838.364,2384.182
						c2.014-142.272-144.727-239.903-275.465-184.405c-48.229,20.047-87.6,60.048-107.05,108.429
						c-52.954,129.511,43.1,274.403,183.434,274.291C1747.785,2583.537,1838.894,2492.677,1838.364,2384.182L1838.364,2384.182z"/>
				</g>
			</g>
		</g>
		<g>
			<g>
				<g>
					<g>
						<path style="fill:#666161;" d="M1653.012,1010.646c0,0,30.892-199.08,137.297-417.038
							c106.405-217.958,279.742-341.525,343.241-276.309c63.5,65.216,126.999,454.795,126.999,454.795L1653.012,1010.646z"/>
					</g>
					<g style="opacity:0.35;">
						<path style="fill:#FFFFFF;" d="M2000.258,329.884c0,0,88.099-50.342,117.846,30.892s82.378,355.827,82.378,355.827
							l57.207-4.576c0,0-64.072-327.223-107.549-375.277C2106.663,288.695,2049.456,300.137,2000.258,329.884z"/>
					</g>
					<g>
						<path style="fill:#2B2625;" d="M1653.032,1025.828c-0.776,0-1.558-0.059-2.349-0.183c-8.286-1.287-13.955-9.041-12.671-17.324
							c0.313-2.014,32.471-203.867,138.652-421.372c77.793-159.343,201.958-285.847,295.234-300.803
							c29.722-4.744,54.79,2.351,72.524,20.562c64.966,66.719,124.526,422.585,131.104,462.944
							c1.353,8.274-4.263,16.074-12.539,17.424c-8.262,1.35-16.079-4.268-17.422-12.542
							c-17.451-107.048-73.55-395.969-122.891-446.645c-10.693-10.982-26.182-14.949-45.967-11.765
							c-70.498,11.301-190.054,114.729-272.759,284.146c-104.077,213.183-135.63,410.737-135.938,412.71
							C1666.846,1020.471,1660.386,1025.828,1653.032,1025.828z"/>
					</g>
				</g>
				<g>
					<path style="fill:#D86671;" d="M2040.302,741.774c0,0,36.319-222.891-32.556-335.073c-7.83-12.753-25.285-15.106-36.049-4.71
						c-51.266,49.516-177.507,205.405-250.61,517.124C1721.088,919.115,1905.866,804.129,2040.302,741.774z"/>
				</g>
				<g>
					<path style="fill:#666161;" d="M1828.065,832.161c-30.892-84.952,47.196-69.506,47.196-69.506
						c-9.776-18.278-14.921-40.345-17.623-57.964c-2.718-17.721,11.416-33.584,29.314-32.56
						c32.585,1.864,55.241,12.436,55.241,12.436c-18.42-34.746-25.607-66.633-28.137-90.181
						c-2.237-20.82,18.241-36.883,37.81-29.434c68.219,25.969,95.874,74.993,95.874,74.993l-7.437,101.828L1828.065,832.161z"/>
				</g>
				<g>
					<path style="fill:#2B2625;" d="M2037.241,645.867c-17.648-26.542-44.043-47.245-72.724-60.913
						c-6.049-2.868-14.192-6.648-20.342-8.089c-7.279-1.286-14.885,4.506-15.977,11.717c-0.636,4.046,0.528,8.357,1.016,12.422
						c4.257,26.768,13.415,52.623,26.392,76.453c3.97,7.307,1.27,16.448-6.04,20.42c-6.035,3.356-11.786,1.526-17.588-1.18
						c-10.342-4.095-21.242-6.9-32.246-8.686c-5.408-0.744-11.186-1.816-16.592-1.543c-9.09,1.188-13.958,10.468-11.743,19.117
						c2.612,17.457,7.127,35.826,14.912,51.14c4.716,8.877-3.574,20.008-13.34,18.254c-21.627-2.697-42.374,2.012-37.684,28.738
						c1.074,7.576,3.516,15.633,6.537,23.584c2.866,7.534-0.913,15.962-8.447,18.828c-7.711,2.954-16.401-1.154-19.019-8.982
						c-3.198-9.5-5.918-19.414-7.046-30.278c-5.273-44.064,29.81-64.63,70.386-56.513c-0.001-0.001-13.492,18.212-13.492,18.212
						l-0.01-0.019c-11.067-20.727-16.936-42.219-20.245-64.902c-2.991-25.264,20.428-48.566,45.763-45.661
						c20.209,1.198,40.081,5.045,58.901,12.826c0,0-19.834,20.867-19.834,20.867c-13.927-27.002-23.58-56.375-27.671-86.563
						c-3.172-15.556-0.358-33.118,11.905-44.065c11.652-11.728,32.128-14.759,46.513-7.446c39.713,16.399,75.87,43.56,98.711,80.419
						C2065.854,648.195,2045.413,659.681,2037.241,645.867L2037.241,645.867z"/>
				</g>
				<g>
					<path style="fill:#2B2625;" d="M2011.563,405.085c20.101,23.517,26.739,53.057,35.05,81.714
						c21.969,85.679,23.351,175.659,13.646,263.172c-2.684,20.985-33.375,18.135-31.972-3.133c0.008-0.021,0.063-0.642,0.068-0.676
						c0,0,4.37-42.429,4.37-42.429c5.507-70.384,5.289-142.314-8.433-211.78c-5.181-27.854-15.102-54.292-21.611-81.667
						C2000.867,405.044,2007.798,400.743,2011.563,405.085L2011.563,405.085z"/>
				</g>
			</g>
			<g>
				<g>
					<g>
						<path style="fill:#666161;" d="M3224.353,1256.925c-111.842,215.239-253.468,358.52-253.468,358.52l-169.799-630.232
							c0,0,14.892-7.679,39.374-19.771c94.191-46.544,330.093-158.513,401.712-148.797c18.668,2.546,33.645,13.662,44.635,31.609
							C3329.024,917.073,3313.071,1086.278,3224.353,1256.925z"/>
					</g>
					<g style="opacity:0.35;">
						<path style="fill:#FFFFFF;" d="M3286.808,848.254c-61.179-27.535-422.726,145.23-422.726,145.23
							c-15.996-24.014-24.045-21.72-24.045-21.72s0.127-2.249,0.425-6.322c94.191-46.544,330.093-158.513,401.712-148.797
							C3260.841,819.191,3275.818,830.307,3286.808,848.254z"/>
					</g>
					<g>
						<path style="fill:#2B2625;" d="M2970.894,1630.615c-3.853,0-7.71-1.458-10.669-4.38c-5.962-5.891-6.021-15.503-0.132-21.467
							c1.401-1.418,141.396-144.336,250.796-354.839c86.943-167.285,98.921-324.912,66.055-388.294
							c-9.233-17.808-21.621-27.883-36.807-29.941c-70.273-9.49-335.674,117.344-432.09,167.017
							c-7.466,3.838-16.611,0.908-20.449-6.54c-3.838-7.454-0.908-16.606,6.543-20.447
							c36.353-18.728,357.642-182.61,450.073-170.112c25.19,3.413,45.83,19.336,59.683,46.047
							c43.486,83.865,15.703,258.933-66.064,416.27c-111.621,214.768-254.707,360.73-256.143,362.18
							C2978.721,1629.111,2974.81,1630.615,2970.894,1630.615z"/>
					</g>
				</g>
				<g>
					<path style="fill:#D86671;" d="M2956.52,1144.182c0,0,157.521-161.824,288.663-173.226
						c14.909-1.296,27.187,11.332,25.237,26.169c-9.288,70.667-59.451,264.888-266.472,509.132
						C3003.948,1506.258,2986.404,1289.332,2956.52,1144.182z"/>
				</g>
				<g>
					<path style="fill:#666161;" d="M3010.173,1368.539c86.657-25.725,27.776-79.291,27.776-79.291
						c20.507-3.019,41.303-12.017,57.071-20.329c15.859-8.361,20.198-29.159,8.724-42.935
						c-20.888-25.079-42.866-36.995-42.866-36.995c38.886-5.873,68.789-19.071,89.22-31.05
						c18.063-10.591,18.788-36.608,1.156-47.902c-61.466-39.373-117.322-32.425-117.322-32.425l-77.412,66.571L3010.173,1368.539z"
						/>
				</g>
				<g>
					<path style="fill:#2B2625;" d="M3032.441,1065.649c37.087-3.134,74.32,6.103,107.349,22.619
						c12.27,6.498,26.143,12.534,33.105,25.84c12.673,23.509-0.101,50.564-23.717,60.619
						c-26.693,14.678-56.045,24.397-86.034,29.271l4.971-28.354c16.653,10,30.925,22.912,43.535,37.529
						c19.085,18.979,15.733,52.404-7.647,66.126c-20.195,10.842-40.966,18.907-64.203,22.351c0,0-0.024,0.002-0.024,0.002
						l6.611-21.68c2.451,2.244,4.058,3.945,5.918,6.001c39.309,44.551,11.211,82.515-37.979,96.549
						c-18.433,5.419-27.176-21.341-8.973-27.77c34.774-9.574,53.465-25.006,24.159-56.231c-7.433-6.859-3.257-20.148,6.613-21.679
						c16.94-2.86,34.405-10.151,49.99-18.452c8.272-3.38,12.835-12.778,8.379-20.811c-2.997-4.506-7.301-8.511-11.113-12.417
						c-9.313-9.264-20.161-17.272-31.338-23.957c-11.166-7.491-6.6-25.7,6.573-27.227c21.499-3.015,42.617-8.726,62.49-17.332
						c7.447-3.219,14.719-6.821,21.768-10.823c3.891-2.291,6.553-5.841,7.236-10.408c2.006-13.176-12.578-17.602-22.461-23.648
						c-28.044-14.915-60.401-23.81-92.227-22.197C3019.488,1091.296,3016.538,1067.89,3032.441,1065.649L3032.441,1065.649z"/>
				</g>
				<g>
					<path style="fill:#2B2625;" d="M3245.317,977.163c-25.879,11.057-53.027,18.818-78.496,31.226
						c-31.832,14.785-62.413,33.877-91.602,53.462c-40.053,27.74-79.882,61.588-115.561,94.949
						c-15.904,13.856-36.993-8.989-21.66-23.724c37.519-34.901,78.375-67.258,121.587-94.872
						c31.088-19.416,64.082-37.059,98.095-50.818c27.981-10.371,55.659-22.612,86.528-20.46
						C3249.79,967.396,3250.737,975.482,3245.317,977.163L3245.317,977.163z"/>
				</g>
			</g>
			<g>
				<g>
					<path style="fill:#666161;" d="M3027.697,1509.501c0,201.365-45.781,283.719-45.781,283.719
						c-3.309,134.668-57.744,245.958-142.771,327.081c-91.179,87.021-217.573,139.42-353.768,148.881
						c-263.141,18.329-725.399-64.067-974.793-384.402c-84.56-108.617-114.684-211.973-117.527-301.157
						c-5.643-173.872,92.324-293.817,92.324-293.817c57.236-249.394,228.859-379.862,228.859-379.862l48.623-37.719
						c0,0,133.862-113.284,305.485-142.475c0,0,83.329-12.347,122.576-12.177c0,0,423.436-2.334,666.678,272.645
						c0,0,37.379,42.174,78.578,131.401c63.897,138.444,87.53,320.377,87.53,320.377S3027.697,1482.05,3027.697,1509.501z"/>
				</g>
				<g>
					<path style="fill:#FFFFFF;" d="M2838.89,2113.004c0.148,4.641-1.681,9.165-5.088,12.32
						c-90.741,84.014-214.871,134.58-348.425,143.858c-263.141,18.329-725.399-64.067-974.793-384.402
						c-84.56-108.617-114.684-211.973-117.527-301.157c3.575-12.941,6.362-22.862,7.938-28.443c0.973-3.447,3.043-6.445,5.929-8.566
						c29.281-21.518,201.318-129.76,503.143,41.018c16.676,9.436,37.797,4.68,48.642-11.116
						c38.735-56.423,130.842-183.675,224.236-261.923c22.933-19.214,58.187-7.069,64.265,22.225
						c12.969,62.504,27.209,177.713,14.144,355.61c-1.3,17.699,10.235,33.8,27.404,38.291
						C2395.506,1758.644,2755.835,1869.604,2838.89,2113.004C2838.89,2113.003,2838.89,2113.004,2838.89,2113.004z"/>
				</g>
				<g>
					<path style="fill:#EDD3CE;" d="M2888.199,2057.132c-93.978,89.692-224.252,143.7-364.629,153.452
						c-271.219,18.892-747.668-66.033-1004.718-396.202c-87.156-111.951-118.205-218.48-121.135-310.402
						c-0.007-0.235-0.003-0.464-0.01-0.699c-3.707,25.171-5.57,52.026-4.651,80.343c2.843,89.184,32.967,192.54,117.527,301.157
						c249.394,320.335,711.652,402.731,974.793,384.402c136.195-9.461,262.59-61.861,353.768-148.881
						c26.466-25.251,49.965-53.428,69.884-84.32C2902.296,2043.23,2895.365,2050.295,2888.199,2057.132z"/>
				</g>
				<g>
					<g>
						<path style="fill:#2B2625;" d="M1719.312,916.655c-50.029,53.486-98.653,109.831-135.097,173.714
							c-32.356,55.109-58.044,115.103-74.893,176.733c0,0-7.383,26.506-7.383,26.506c-0.56,2.578-1.845,4.997-3.398,6.946
							c-73.853,100.043-105.003,231.928-80.19,354.06c15.121,73.729,48.946,143.19,93.657,203.494
							c192.763,259.241,525.09,375.988,838.51,394.85c141.805,8.058,278.653-8.127,400.831-85.806
							c130.017-80.2,211.478-221.381,213.612-374.326c0.19-5.593,2.991-8.963,4.968-14.416c5.145-13.215,9.802-27.024,13.501-40.771
							c17.021-62.277,24.714-128.079,28.839-192.566c0.561-11.909,1.655-23.787,5.117-35.701c1.457-5.79,7.514-9.26,13.247-7.571
							c3.813,1.111,6.533,4.192,7.373,7.805c5.605,24.382,2.593,48.75,2.065,73.132c-2.528,49.03-7.757,97.881-18.97,145.933
							c-6.13,24.801-12.793,49.288-24.16,72.485c0,0,1.953-7.503,1.953-7.503c-0.878,26.741-3.486,53.45-8.135,79.875
							c-36.115,206.466-205.691,353.842-405.402,398.038c-64.667,14.737-131.243,18.129-197.24,16.656
							c-235.443-6.798-472.765-67.919-672.466-195.542c-174.199-113.506-333.572-293.786-339.653-511.408
							c-2.214-94.178,24.224-187.922,73.033-268.208c7.422-11.909,14.264-22.665,23.223-33.984c0,0-3.399,6.938-3.399,6.938
							c25.054-112.704,78.532-218.901,154.2-306.077c25.117-29.094,52.602-56.021,86.084-76.675
							C1718.099,898.254,1726.491,909.573,1719.312,916.655L1719.312,916.655z"/>
					</g>
					<g>
						<path style="fill:#2B2625;" d="M2190.903,710.544c62.499-6.972,125.288-0.438,186.909,10.42
							c123.534,21.779,245.111,63.72,349.985,133.523c39.486,26.061,77.401,55.558,108.56,91.392
							c4.193,4.769,11.363,13.032,15.019,18.362c4.791,6.296,9.385,12.739,13.795,19.282c3.145,4.668,1.914,11.001-2.754,14.146
							c-3.917,2.642-8.984,2.185-12.388-0.752c-24.058-19.165-46.338-39.202-70.19-57.556
							c-93.39-76.567-204.861-128.451-320.391-162.144c-87.596-26.195-177.951-38.999-268.467-52.605
							c-3.951-0.462-6.79-4.128-6.191-8.074C2185.264,713.325,2187.837,710.935,2190.903,710.544L2190.903,710.544z"/>
					</g>
					<g>
						<path style="fill:#2B2625;" d="M1757.314,865.667c66.123-71.586,191.961-128.496,287.822-142.752
							c7.178-1.073,14.38-1.948,21.543-2.895c5.405-0.718,10.371,3.086,11.089,8.494c0.654,4.951-2.48,9.531-7.163,10.82
							c-9.883,2.785-20.872,5.762-30.849,8.357c-43.031,12.961-85.585,29.146-125.845,49.18
							c-43.761,20.796-103.002,57.399-145.528,81.875C1760.078,883.997,1750.666,873.056,1757.314,865.667L1757.314,865.667z"/>
					</g>
					<g>
						<path style="fill:#2B2625;" d="M3012.935,1443.088c-19.967-107.766-47.746-214.042-85.904-316.858
							c-4.301-11.406,11.655-19.509,18.263-9.206c30.528,47.998,49.523,102.273,63.379,157.045
							c13.619,54.863,23.125,110.194,25.772,166.814C3034.759,1454.288,3015.35,1456.353,3012.935,1443.088L3012.935,1443.088z"/>
					</g>
				</g>
			</g>
			<g>
				<g>
					<path style="fill:#F9C228;" d="M1929.318,1532.956c-2.249-1.188-4.54-2.206-6.873-3.14
						c-41.792-17.226-93.767-1.4-144.13-51.805c-28.851-28.851-51.635-86.427-66.485-133.098
						c-12.516-39.458-19.347-71.11-19.347-71.11c140.735-85.833,262.123-32.415,269.463,94.403
						C1967.079,1457.433,1929.318,1532.956,1929.318,1532.956z"/>
				</g>
				<g>
					<path style="fill:#F78B2B;" d="M1929.318,1532.956c-2.249-1.188-4.54-2.206-6.873-3.14
						c1.527-41.198-2.164-126.988-51.466-183.927c-44.423-51.211-115.999-24.651-159.149-0.976
						c-12.516-39.458-19.347-71.11-19.347-71.11c140.735-85.833,262.123-32.415,269.463,94.403
						C1967.079,1457.433,1929.318,1532.956,1929.318,1532.956z"/>
				</g>
				<g>
					<defs>
						<path id="SVGID_1_" d="M1929.321,1532.945c0,0,37.757-75.513,32.608-164.756c-7.315-126.8-128.715-180.202-269.444-94.391
							c0,0,32.608,151.026,85.81,204.229C1831.497,1531.229,1886.416,1510.634,1929.321,1532.945z"/>
					</defs>
					<clipPath id="SVGID_00000110431021773966179720000001150388187048110781_">
						<use xlink:href="#SVGID_1_"  style="overflow:visible;"/>
					</clipPath>
					<g style="clip-path:url(#SVGID_00000110431021773966179720000001150388187048110781_);">
						<g>
							
								<ellipse transform="matrix(0.3819 -0.9242 0.9242 0.3819 -115.5633 2594.7883)" style="fill:#2B2625;" cx="1882.054" cy="1383.788" rx="127.339" ry="108.288"/>
						</g>
						<g>
							
								<ellipse transform="matrix(0.3819 -0.9242 0.9242 0.3819 -85.8943 2544.4355)" style="fill:#FFFFFF;" cx="1859.252" cy="1336.432" rx="40.59" ry="34.517"/>
						</g>
					</g>
				</g>
				<g>
					<path style="fill:#2B2625;" d="M1924.8,1519.011c-3.178,0.709-6.925,3.81-8.052,6.78c0.524-0.823,1.239-1.454,1.738-2.283
						c22.576-34.567,28.578-77.621,31.749-117.936c10.843-163.623-128.123-195.555-247.193-114.46
						c0-0.001,9.268-21.593,9.268-21.593c3.209,23.002,8.269,46.894,14.175,69.639c17.918,62.915,40.964,143.112,111.719,162.432
						c22.293,6.533,47.607,6.025,71.431,10.549c4.825,0.732,11.819,2.746,16.499,4.068c0.239,0.039-0.015,0.037-0.151,0.22
						C1925.62,1516.743,1924.985,1517.664,1924.8,1519.011L1924.8,1519.011z M1933.843,1546.877
						c-8.549-0.344-17.338-4.337-25.141-7.727c-8.904-3.057-17.793-5.076-27.588-6.687
						c-106.981-12.049-137.988-68.695-175.61-160.802c-12.188-30.766-22.92-61.418-32.842-93.583
						c-2.75-8.765,1.733-17.396,9.268-21.596c93.03-54.44,227.196-67.407,278.262,48.062
						c22.124,53.605,14.845,114.413,1.006,169.121c-4.36,15.687-9.723,32.937-14.127,48.721c-1.07,3.694-3.026,11.042-3.994,14.758
						C1942.16,1541.257,1937.739,1545.37,1933.843,1546.877L1933.843,1546.877z"/>
				</g>
			</g>
			<g>
				<g>
					<path style="fill:#F9C228;" d="M2731.355,1689.044c0,0-32.288,30.76-85.748,52.951c-41.962,17.396-96.949,29.53-159.658,17.396
						c-106.41-20.578-140.735-87.53-183.63-113.284c0,0,0,0,0.042-0.042c1.4-2.249,47.732-74.335,138.953-111.502
						C2533.978,1496.801,2652.396,1510.547,2731.355,1689.044z"/>
				</g>
				<g>
					<path style="fill:#F78B2B;" d="M2731.355,1689.044c0,0-32.288,30.76-85.748,52.951
						c-54.224-249.776-338.791-98.307-343.246-95.931c1.4-2.249,47.732-74.335,138.953-111.502
						C2533.978,1496.801,2652.396,1510.547,2731.355,1689.044z"/>
				</g>
				<g>
					<path style="fill:#2B2625;" d="M2289.326,1649.226c-0.803-4.012,0.474-9.001,3.008-12.402c0,0,1.255-2.014,1.255-2.014
						c12.281-19.032,27.062-36.347,43.276-52.122c35.019-33.765,76.901-60.038,123.823-74.682
						c137.486-42.608,239.94,54.005,289.218,172.816c3.704,7.966,1.615,17.253-4.554,22.884
						c-8.868,7.842-16.939,13.712-26.352,20.105c-35.393,23.727-75.135,41.438-116.934,50.054
						c-72.622,15.541-152.445,2.343-214.023-39.863c-30.524-19.818-52.586-48.077-80.966-69.471
						C2301.087,1660.553,2293.438,1655,2289.326,1649.226L2289.326,1649.226z M2315.298,1643.013
						c1.566-0.773,1.806-1.978,2.354-1.812c13.438,11.101,26.127,23.699,38.765,35.232c28.63,26.596,60.486,47.953,97.51,59.741
						c54.401,17.208,114.071,15.515,167.549-4.204c34.842-13.165,68.479-32.431,95.894-57.624
						c0.001-0.012-4.551,22.883-4.551,22.881c-34.261-76.263-91.096-153.681-179.912-159.9
						c-83.312-3.717-165.543,48.898-217.065,112.958c0,0.001-1.172,1.542-1.172,1.542l-0.581,0.769
						C2315.832,1650.265,2316.344,1645.803,2315.298,1643.013L2315.298,1643.013z"/>
				</g>
				<g>
					<g>
						
							<ellipse transform="matrix(0.3514 -0.9362 0.9362 0.3514 105.5887 3416.2798)" style="fill:#2B2625;" cx="2518.526" cy="1631.93" rx="119.691" ry="112.3"/>
					</g>
					<g>
						
							<ellipse transform="matrix(0.3514 -0.9362 0.9362 0.3514 116.4445 3352.3992)" style="fill:#FFFFFF;" cx="2477.858" cy="1592.154" rx="41.606" ry="35.796"/>
					</g>
				</g>
			</g>
			<g>
				<g>
					<defs>
						<path id="SVGID_00000042005470011217739950000000425885404567931820_" d="M1949.916,1721.156
							c0,0-70.937,259.719,89.243,281.458s215.098-204.801,215.098-204.801S2090.645,1712.002,1949.916,1721.156z"/>
					</defs>
					<defs>
						<path id="SVGID_00000092426728346457189900000008761226369885630388_" d="M2060.439,2014.688
							c-7.344,0-14.897-0.505-22.705-1.565c-37.139-5.039-65.781-22.417-85.127-51.648
							c-55.513-83.879-14.688-236.653-12.925-243.115c1.196-4.368,5.029-7.495,9.546-7.791
							c142.1-9.209,303.164,74.29,309.956,77.849c4.312,2.261,6.528,7.163,5.381,11.895
							C2264.023,1802.561,2210.757,2014.688,2060.439,2014.688z M1958.325,1731.335c-7.285,31.064-31.782,152.363,11.992,218.457
							c16.045,24.231,39.028,38.069,70.269,42.31c6.675,0.906,13.164,1.338,19.463,1.338
							c118.35,0.007,170.669-152.795,181.655-190.037C2208.818,1787.402,2075.801,1726.709,1958.325,1731.335z"/>
					</defs>
					<use xlink:href="#SVGID_00000042005470011217739950000000425885404567931820_"  style="overflow:visible;fill:#2B2625;"/>
					<use xlink:href="#SVGID_00000092426728346457189900000008761226369885630388_"  style="overflow:visible;fill:#2B2625;"/>
					<clipPath id="SVGID_00000175314421045751417430000017128692631373040572_">
						<use xlink:href="#SVGID_00000042005470011217739950000000425885404567931820_"  style="overflow:visible;"/>
					</clipPath>
					
						<clipPath id="SVGID_00000034057560800146182630000017853535801026278030_" style="clip-path:url(#SVGID_00000175314421045751417430000017128692631373040572_);">
						<use xlink:href="#SVGID_00000092426728346457189900000008761226369885630388_"  style="overflow:visible;"/>
					</clipPath>
					<g style="clip-path:url(#SVGID_00000034057560800146182630000017853535801026278030_);">
						<path style="fill:#F9677F;" d="M1975.963,1974.908c0,0-62.865-75.367,39.263-172.669
							c81.93-78.059,242.158-4.212,245.317,128.449C2263.701,2063.348,2003.337,2038.08,1975.963,1974.908z"/>
						<path style="fill:#2B2625;" d="M2120.117,2036.003c-65.469,0.002-135.869-20.391-152.603-56.089
							c-7.891-10.737-59.331-89.175,40.977-184.744c38.179-36.375,96.353-44.683,151.831-21.687
							c65.181,27.014,108.35,88.628,109.976,156.973c1.211,50.811-32.358,86.318-94.526,99.983
							C2158.691,2034.192,2139.619,2036.003,2120.117,2036.003z M2098.096,1780.195c-29.058,0-55.991,9.915-76.138,29.111
							c-93.857,89.421-40.776,156.567-38.472,159.382c0.571,0.698,1.074,1.509,1.431,2.336
							c13.467,31.072,110.01,57.188,186.665,40.347c36.812-8.091,80.435-28.616,79.204-80.452
							c-1.445-60.625-39.888-115.344-97.939-139.402C2134.517,1783.921,2115.903,1780.195,2098.096,1780.195z"/>
					</g>
				</g>
				<g>
					<g>
						<path style="fill:#FFFFFF;" d="M1938.066,1812.625c-1.357,0-2.598-0.225-3.794-0.684
							c-11.885-4.573-12.007-39.756-7.471-69.734l57.1,31.814C1970.781,1792.319,1951.216,1812.625,1938.066,1812.625
							L1938.066,1812.625z"/>
					</g>
					<g>
						<path style="fill:#2B2625;" d="M1935.444,1759.167l32.573,18.147c-11.206,13.589-23.33,24.119-29.434,24.702
							C1934.722,1796.567,1933.701,1779.116,1935.444,1759.167 M1919.023,1725.732c0,0-18.306,84.666,11.44,96.108
							c2.48,0.952,5.024,1.389,7.598,1.389c28.364,0,61.05-52.876,61.05-52.876L1919.023,1725.732L1919.023,1725.732z"/>
					</g>
				</g>
				<g>
					<g>
						<path style="fill:#FFFFFF;" d="M2184.727,1893.523c-12.744-0.728-23.589-34.202-28.394-64.131l64.097,12.883
							c-7.612,23.633-21.724,51.265-35.117,51.265L2184.727,1893.523z"/>
					</g>
					<g>
						<path style="fill:#2B2625;" d="M2169.746,1842.908l36.592,7.356c-6.904,17.422-15.479,30.789-20.483,32.529
							C2180.503,1878.845,2174.185,1862.498,2169.746,1842.908 M2143.911,1816.077c0,0,8.389,86.216,40.21,88.037
							c0.4,0.022,0.796,0.034,1.191,0.034c31.074,0,48.481-70.005,48.481-70.005L2143.911,1816.077L2143.911,1816.077z"/>
					</g>
				</g>
				<g>
					<g>
						<path style="fill:#FFFFFF;" d="M1909.559,1646.814c0,0-6.102,68.194,35.735,103.918c41.837,35.724,120.061,8.9,120.061,8.9
							s113.389,137.72,239.244,41.613"/>
					</g>
					<g>
						<path style="fill:#2B2625;" d="M1918.945,1647.654c10.859,94.429,49.221,120.673,141.592,97.932
							c12.526-3.531,18.841,8.262,27.485,15.113c11.823,10.434,24.501,20.25,37.822,28.538
							c56.795,36.904,113.682,37.038,172.549,3.883c5.051-2.779,11.434-0.87,14.121,4.235c2.139,4.05,1.304,8.889-1.714,12.017
							c-16.577,17.129-38.018,30.72-62.261,37.871c-60.83,18.337-126.047-9.678-170.073-51.316
							c-9.107-8.49-16.821-16.705-24.575-26.853l16.279,4.607c-41.622,14.072-91.268,20.109-129.683-6.259
							c-37.77-29.06-48.635-77.257-40.318-121.446C1902.644,1635.128,1918.448,1636.647,1918.945,1647.654L1918.945,1647.654z"/>
					</g>
				</g>
				<g>
					<g>
						<path style="fill:#FFFFFF;" d="M2065.354,1759.632c0,0,1.995-39.094,18.449-72.119"/>
					</g>
					<g>
						<path style="fill:#2B2625;" d="M2050.522,1758.875c3.868-26.703,11.575-52.129,24.868-75.554
							c2.554-4.526,8.291-6.123,12.818-3.572c4.111,2.322,5.806,7.273,4.165,11.553c-8.541,21.673-12.246,46.045-12.188,69.167
							C2079.771,1781.597,2048.687,1779.963,2050.522,1758.875L2050.522,1758.875z"/>
					</g>
				</g>
				<g>
					<g>
						<path style="fill:#FF92C9;" d="M2064.919,1700.351c-5.066-7.839-11.308-21.054-15.972-42.534
							c-3.076-14.168,8.148-27.426,22.629-26.732c18.298,0.876,43.553,6.859,67.734,28.486c10.302,9.214,9.494,25.871-1.726,33.941
							c-10.265,7.383-26.759,14.557-52.919,16.591C2076.824,1710.713,2069.188,1706.956,2064.919,1700.351z"/>
						<path style="fill:#2B2625;" d="M2082.969,1720.776c-10.85,0-21.011-5.471-26.953-14.666l0,0
							c-7.427-11.484-13.291-26.975-17.437-46.04c-2.173-10.002,0.381-20.225,7.002-28.044c6.621-7.825,16.353-12.017,26.504-11.538
							c19.014,0.911,47.334,7.061,74.297,31.179c7.344,6.565,11.25,16.018,10.728,25.93c-0.527,9.871-5.386,18.809-13.33,24.526
							c-14.507,10.435-34.121,16.677-58.296,18.555C2084.644,1720.742,2083.804,1720.776,2082.969,1720.776z M2070.508,1641.665
							c-3.374,0-6.533,1.462-8.735,4.067c-2.324,2.747-3.223,6.331-2.461,9.834c4.482,20.63,10.371,32.61,14.517,39.026
							c0,0,0,0.002,0.005,0.002c2.129,3.301,6.05,5.244,10.005,4.932c20.249-1.57,36.245-6.492,47.549-14.624
							c2.7-1.943,4.355-5.015,4.536-8.428c0.186-3.459-1.157-6.738-3.682-8.994c-22.329-19.973-45.591-25.056-61.172-25.801
							C2070.884,1641.67,2070.693,1641.665,2070.508,1641.665z"/>
					</g>
				</g>
			</g>
		</g>
	</g>
</g>
</svg>
